<?xml version="1.0" encoding="UTF-8" standalone="no"?>
<!-- Created with Inkscape (http://www.inkscape.org/) -->

<svg
   width="400"
   height="400"
   viewBox="0 0 105.83333 105.83333"
   version="1.1"
   id="svg1"
   xmlns="http://www.w3.org/2000/svg"
   xmlns:svg="http://www.w3.org/2000/svg">
  <defs
     id="defs1" />
  <g
     id="layer1">
    <g
       id="g20"
       transform="matrix(0.26458333,0,0,0.26458333,-293.29104,-152.18824)">
      <path
         class="cls-6"
         d="m 1325.5,743.5 c 8.7,-59.7 52.46,-97.32 91,-94 25.1,2.16 45.95,21.79 56,41 21.77,41.61 -5.27,85.45 -8.5,90.5 -9.01,14.1 -21.21,24.29 -40,40 -14.19,11.86 -18.72,13.66 -31.5,23.5 -39.81,30.63 -55.42,58.92 -59.5,56.5 -2.67,-1.58 0.67,-15.7 28,-72 l -37.5,-13.5 c 25.17,-14.5 50.33,-29 75.5,-43.5 -19.33,1 -38.67,2 -58,3 8,-17.33 16,-34.67 24,-52 -13.17,6.83 -26.33,13.67 -39.5,20.5 z"
         id="path4"
         style="fill:#681313;stroke:#2d0d0d;stroke-width:14px;stroke-miterlimit:10" />
      <path
         class="cls-6"
         d="m 1303,897 c -4.46,4 -26.11,-19.08 -78.5,-52.5 -39.37,-25.12 -44.04,-22.87 -56.5,-36.5 -25.57,-27.98 -45.18,-80.48 -21,-115 14.97,-21.38 39.86,-26.04 45,-27 34.02,-6.36 64.7,12.92 81,34 13.36,17.27 16.88,35.51 18,45 l -45,-24 c 11.67,18.33 23.33,36.67 35,55 -18.67,-0.33 -37.33,-0.67 -56,-1 l 68,34 c -9,7.67 -18,15.33 -27,23 35.54,49.6 39.8,62.49 37,65 z"
         id="path5"
         style="fill:#681313;stroke:#2d0d0d;stroke-width:14px;stroke-miterlimit:10" />
    </g>
  </g>
</svg>
