<?xml version="1.0" encoding="UTF-8" standalone="no"?>
<!-- Created with Inkscape (http://www.inkscape.org/) -->

<svg
   width="400"
   height="400"
   viewBox="0 0 105.83333 105.83333"
   version="1.1"
   id="svg1"
   xmlns="http://www.w3.org/2000/svg"
   xmlns:svg="http://www.w3.org/2000/svg">
  <defs
     id="defs1" />
  <g
     id="layer1">
    <g
       id="g18"
       transform="matrix(0.26458333,0,0,0.26458333,-139.56239,-19.083484)">
      <path
         class="cls-13"
         d="m 732.5,191.5 c 1.21,-6.07 3.89,-15.33 10.5,-24.5 14.06,-19.51 35.69,-24.48 44.5,-26.5 26.99,-6.2 74.97,-3.51 97,32 23.11,37.26 -0.33,81.7 -3.5,87.5 -9.82,17.94 -24.03,29.27 -40,42 -22.61,18.03 -31.87,18.51 -46.5,30.5 -13.77,11.27 -30.82,31.51 -40.5,70.5 -8.02,-7.34 -20.49,-17.99 -37,-29 -27.68,-18.46 -44.55,-23.15 -62,-32 -8.36,-4.24 -72.91,-38.1 -89.5,-101.5 -2.52,-9.63 -15.26,-58.34 13,-87 22.15,-22.47 56.3,-19.23 74.5,-17.5 12.45,1.18 51.75,4.91 71,35 4.94,7.72 7.29,15.19 8.5,20.5 z"
         id="path11"
         style="fill:#b0d6e8" />
      <path
         class="cls-4"
         d="m 591.5,281.5 c 10.3,-12.75 33.23,-37.1 70,-47 15.32,-4.13 39.6,-10.66 63,2 1.54,0.83 33.26,18.57 32,46 -0.95,20.58 -19.87,33.6 -35,44 -20.83,14.32 -41.53,18.53 -53,20 -9.66,-4.56 -20.64,-10.69 -32,-19 -21.27,-15.56 -35.7,-32.75 -45,-46 z"
         id="path12"
         style="fill:none;stroke:#000000;stroke-width:15px;stroke-miterlimit:10" />
      <path
         class="cls-7"
         d="m 713.5,209.5 c -3.33,5.67 -6.67,11.33 -10,17"
         id="path13"
         style="fill:none;stroke:#000000;stroke-width:15px;stroke-linecap:round;stroke-miterlimit:10" />
      <path
         class="cls-7"
         d="m 751.63,230.16 c -3.9,5.29 -7.8,10.58 -11.7,15.88"
         id="path14"
         style="fill:none;stroke:#000000;stroke-width:15px;stroke-linecap:round;stroke-miterlimit:10" />
      <path
         class="cls-7"
         d="m 774.58,257.64 c -5.86,2.97 -11.73,5.94 -17.59,8.91"
         id="path15"
         style="fill:none;stroke:#000000;stroke-width:15px;stroke-linecap:round;stroke-miterlimit:10" />
      <path
         class="cls-5"
         d="m 695.5,233.5 c -19.97,-1.21 -47.5,9.58 -51,31 -3.56,21.77 19.5,43.63 43,46 20.44,2.06 40.94,-10.63 48,-28 1.3,-3.19 4.53,-11.46 2,-21 -4.72,-17.82 -26.07,-27.04 -42,-28 z"
         id="path16"
         style="stroke:#000000;stroke-width:15px;stroke-linecap:round;stroke-miterlimit:10" />
      <path
         class="cls-12"
         d="m 884.5,172.5 c -22.03,-35.51 -70.01,-38.2 -97,-32 -8.81,2.02 -30.44,6.99 -44.5,26.5 -6.61,9.17 -9.29,18.43 -10.5,24.5 -1.21,-5.31 -3.56,-12.78 -8.5,-20.5 -19.25,-30.09 -58.55,-33.82 -71,-35 -18.2,-1.73 -52.35,-4.97 -74.5,17.5 -28.26,28.66 -15.52,77.37 -13,87 16.59,63.4 81.14,97.26 89.5,101.5 17.45,8.85 34.32,13.54 62,32 16.51,11.01 28.98,21.66 37,29 9.68,-38.99 26.73,-59.23 40.5,-70.5 14.63,-11.99 23.89,-12.47 46.5,-30.5 15.97,-12.73 30.18,-24.06 40,-42 3.17,-5.8 26.61,-50.24 3.5,-87.5 z M 775,321 c -3.92,13.89 -11.99,14.64 -18,27 -4.7,9.67 -3.4,16.7 -9,19 -2.73,1.12 -5.43,0.44 -7,0 -14.85,-4.17 -43.04,-19.32 -48,-22 -9.72,-3.64 -23.57,-9.58 -39,-19 -15.99,-9.76 -39.84,-24.68 -57,-52 -11.99,-19.09 -22.12,-46.5 -15,-52 3.36,-2.6 9.67,0.45 13,2 25.86,12.08 53.55,20.09 79,33 39.36,19.97 59.04,29.95 64,32 15.52,6.41 37.65,14.6 38,27 0.04,1.32 -0.31,2.55 -1,5 z m 76,-51 c -2.94,9.11 -11.3,13.42 -26,21 -14.33,7.4 -19.99,7.17 -22,7 -7.64,-0.64 -13.03,-4.59 -15,-6 -18.79,-13.47 -41.15,-21.15 -61,-33 -27.98,-16.71 -52.6,-28.55 -64,-34 -19.45,-9.3 -35.82,-24.16 -55,-34 -3.52,-1.81 -10.89,-5.51 -12,-12 -1.51,-8.82 9.28,-18.47 18,-23 13.98,-7.25 28.31,-4.27 44,-1 11.08,2.31 25.55,5.36 41,16 22.76,15.67 32.41,37.34 36,47 2.56,-7.31 8.42,-20.49 20,-24 9.29,-2.82 15.61,2.45 44,20 34.96,21.61 48.15,26.83 52,42 0.65,2.55 1.95,7.97 0,14 z m 25,-58 c -11.74,12.22 -97.42,-39.76 -92,-56 3,-8.99 35.12,-10.62 59,3 25.89,14.76 39.68,46.05 33,53 z"
         id="path17"
         style="fill:#6abee2" />
      <path
         class="cls-3"
         d="m 733.5,189.5 c 1.14,-5.65 3.61,-14.07 9.5,-22.5 13.64,-19.5 35.44,-24.42 44.5,-26.5 26.99,-6.2 74.97,-3.51 97,32 23.11,37.26 -0.33,81.7 -3.5,87.5 -9.82,17.94 -24.03,29.27 -40,42 -22.61,18.03 -31.87,18.51 -46.5,30.5 -13.77,11.27 -30.82,31.51 -40.5,70.5 -8.02,-7.34 -20.49,-17.99 -37,-29 -27.68,-18.46 -44.55,-23.15 -62,-32 -8.36,-4.24 -72.91,-38.1 -89.5,-101.5 -2.52,-9.63 -15.26,-58.34 13,-87 22.15,-22.47 56.3,-19.23 74.5,-17.5 11.04,1.05 49.53,4.9 71,35 5.06,7.09 7.89,13.84 9.5,18.5 z"
         id="path18"
         style="fill:none;stroke:#1b7fbc;stroke-width:15px;stroke-miterlimit:10" />
    </g>
  </g>
</svg>
