<?xml version="1.0" encoding="UTF-8" standalone="no"?>
<!-- Created with Inkscape (http://www.inkscape.org/) -->

<svg
   width="400"
   height="400"
   viewBox="0 0 105.83333 105.83333"
   version="1.1"
   id="svg1"
   xmlns="http://www.w3.org/2000/svg"
   xmlns:svg="http://www.w3.org/2000/svg">
  <defs
     id="defs1" />
  <g
     id="layer1">
    <g
       id="g21"
       transform="matrix(0.26458333,0,0,0.26458333,-135.04383,-153.88427)">
      <path
         class="cls-1"
         d="m 620,679 c 1.25,-5.51 5.79,-14.58 60,-34 59.05,-21.15 88.57,-31.73 111,-24 20.03,6.9 36.35,31.27 69,80 41.08,61.31 37.08,75.14 34,81 -8.08,15.39 -31.91,18.37 -45,19 1.13,7.92 2.44,19.27 3,33 0.94,23.12 1.3,34.95 -4,48 -4.72,11.61 -11.42,18.84 -19,27 -9.2,9.91 -22.41,24.14 -30,21 -7.02,-2.91 -8.05,-20.19 -4,-41 5.77,-2.73 14.75,-7.84 23,-17 11.06,-12.28 14.85,-25.24 18,-36 2.21,-7.56 4.73,-18.86 5,-33 -1.62,0.24 -4.05,0.6 -7,1 -3.92,0.53 -52.14,7.75 -74,5 -19.74,-2.48 -41.43,-22.02 -84,-61 -56.63,-51.84 -57.44,-62.66 -56,-69 z"
         id="path6"
         style="fill:#141e1d" />
      <path
         class="cls-8"
         d="m 690,736 c 1.78,-3.36 16.29,-29.68 47,-35 28.38,-4.91 56.44,10.56 68,33 17.46,33.92 -8.94,71.85 -16,82 -13.04,18.73 -30.82,31.31 -53,47 -17.62,12.47 -30.49,18.97 -44,36 -8.74,11.01 -13.94,21.63 -17,29 -2.67,-7.57 -7.06,-18.57 -14,-31 -12.14,-21.74 -23.75,-32.87 -38,-49 -30.29,-34.28 -45.43,-51.42 -52,-74 -2.48,-8.52 -13.18,-45.53 8,-70 13.08,-15.11 31.78,-17.56 36,-18 28.5,-2.97 58.42,16.91 75,50 z"
         id="path7"
         style="fill:#60bb66;stroke:#14661d;stroke-width:12px;stroke-miterlimit:10" />
      <path
         class="cls-11"
         d="m 634,751 c -0.4,5.13 -1.25,11.24 -3,18 -1.72,6.66 -3.9,12.36 -6,17 -19.44,-1.6 -40.18,-4.15 -62,-8 -10.36,-1.83 -20.36,-3.84 -30,-6 -0.65,-5.8 -0.94,-14.19 1,-24 2.09,-10.6 5.97,-18.74 9,-24 13.07,2.49 27.14,5.74 42,10 18.09,5.19 34.46,11.05 49,17 z"
         id="path8"
         style="fill:none;stroke:#141e1d;stroke-width:15px;stroke-linejoin:round" />
      <path
         class="cls-11"
         d="m 670,756 c -3.18,4.64 -7.24,11.7 -10,21 -3.03,10.23 -3.29,19.12 -3,25 12.48,5.31 27.2,10.62 44,15 19.34,5.04 36.97,7.68 52,9 2.41,-4.96 4.83,-10.64 7,-17 3,-8.82 4.85,-16.96 6,-24 -11.16,-6.64 -26.25,-14.21 -45,-20 -19.88,-6.14 -37.55,-8.33 -51,-9 z"
         id="path9"
         style="fill:none;stroke:#141e1d;stroke-width:15px;stroke-linejoin:round" />
      <path
         class="cls-10"
         d="m 636.5,765.5 c 7.33,2.33 14.67,4.67 22,7"
         id="path10"
         style="fill:#122220;stroke:#122220;stroke-width:15px;stroke-miterlimit:10" />
    </g>
  </g>
</svg>
